# xmcd CD database file
#
# Track frame offsets:
#	150
#	51730
#	79880
#	109648
#	157147
#	208774
#	261974
#	278741
#	296956
#
# Disc length: 4158 seconds
#
# Revision: 3
# Processed by: cddbd v1.5.1PL0 Copyright (c) Steve Scherf et al.
# Submitted via: cdripper 1,0,32,406
#
DISCID=92103c09
DTITLE=Jimi Hendrix - Astro Man Box Set [CD6] 
DYEAR=2003
DGENRE=Acid
TTITLE0=I Don't Live Today (Live)
TTITLE1=Spanish Castle Magic (Live)
TTITLE2=Hey Joe (Live)
TTITLE3=Voodoo Chile (Live)
TTITLE4=Sunshine Of Your Love (Live)
TTITLE5=Red House (Live)
TTITLE6=Fire (Live)
TTITLE7=Purple Haze (Live)
TTITLE8=Star Spangled Banner (Live)
EXTD=YEAR: 2003
EXTT0=
EXTT1=
EXTT2=
EXTT3=
EXTT4=
EXTT5=
EXTT6=
EXTT7=
EXTT8=
PLAYORDER=
